<svg id="Layer_1" data-name="Layer 1" xmlns="http://www.w3.org/2000/svg" viewBox="0 0 512 512">
    <path
        d="M256,0C114.62,0,0,114.62,0,256S114.62,512,256,512,512,397.38,512,256,397.38,0,256,0ZM404.54,316.4c0,46.64-38.87,84.6-86.64,84.6H194.13c-47.78,0-86.67-37.94-86.67-84.58V195.6c0-46.64,38.87-84.6,86.63-84.6H317.87c47.78,0,86.67,37.94,86.67,84.56Z" />
    <ellipse cx="345.12" cy="169" rx="11.88" ry="11.6" />
    <path
        d="M256,180.6c-42.6,0-77.24,33.82-77.24,75.4S213.4,331.4,256,331.4s77.24-33.81,77.24-75.4S298.6,180.6,256,180.6Zm0,127.6c-29.53,0-53.47-23.37-53.47-52.2s23.94-52.2,53.47-52.2,53.47,23.37,53.47,52.2S285.53,308.2,256,308.2Z" />
</svg>